<mxfile host="65bd71144e">
    <diagram id="C5RBs43oDa-KdzZeNtuy" name="Page-1">
        <mxGraphModel dx="1189" dy="1989" grid="1" gridSize="10" guides="1" tooltips="1" connect="1" arrows="1" fold="1" page="1" pageScale="1" pageWidth="827" pageHeight="1169" math="0" shadow="0">
            <root>
                <mxCell id="WIyWlLk6GJQsqaUBKTNV-0"/>
                <mxCell id="WIyWlLk6GJQsqaUBKTNV-1" parent="WIyWlLk6GJQsqaUBKTNV-0"/>
                <mxCell id="bqDy925foOsLshB6MztX-78" style="edgeStyle=orthogonalEdgeStyle;rounded=0;orthogonalLoop=1;jettySize=auto;html=1;endArrow=block;endFill=0;endSize=18;entryX=0.366;entryY=-0.001;entryDx=0;entryDy=0;entryPerimeter=0;" parent="WIyWlLk6GJQsqaUBKTNV-1" source="o9PLWf0R3HBw7IpNgMBT-19" target="hy1oDO8q6_hWIqTfd9-p-6" edge="1">
                    <mxGeometry relative="1" as="geometry">
                        <mxPoint x="1215" y="920" as="targetPoint"/>
                        <Array as="points"/>
                    </mxGeometry>
                </mxCell>
                <mxCell id="bqDy925foOsLshB6MztX-79" value="extends" style="edgeLabel;html=1;align=center;verticalAlign=middle;resizable=0;points=[];" parent="bqDy925foOsLshB6MztX-78" vertex="1" connectable="0">
                    <mxGeometry x="0.8784" y="2" relative="1" as="geometry">
                        <mxPoint as="offset"/>
                    </mxGeometry>
                </mxCell>
                <mxCell id="lA4buG2lMoGACo_CtUEy-1" value="TicketAttachment" style="swimlane;fontStyle=1;align=center;verticalAlign=top;childLayout=stackLayout;horizontal=1;startSize=26;horizontalStack=0;resizeParent=1;resizeParentMax=0;resizeLast=0;collapsible=1;marginBottom=0;whiteSpace=wrap;html=1;" parent="WIyWlLk6GJQsqaUBKTNV-1" vertex="1">
                    <mxGeometry x="1510" y="-43" width="130" height="100" as="geometry"/>
                </mxCell>
                <mxCell id="lA4buG2lMoGACo_CtUEy-2" value="&lt;div&gt;+ Id: String&lt;/div&gt;&lt;div&gt;&lt;span style=&quot;background-color: initial;&quot;&gt;+ Binary: Byte[]&lt;/span&gt;&lt;br&gt;&lt;/div&gt;&lt;div&gt;+ Name: String&lt;br&gt;&lt;div&gt;+ Filetype: String&lt;/div&gt;&lt;/div&gt;" style="text;strokeColor=none;fillColor=none;align=left;verticalAlign=top;spacingLeft=4;spacingRight=4;overflow=hidden;rotatable=0;points=[[0,0.5],[1,0.5]];portConstraint=eastwest;whiteSpace=wrap;html=1;" parent="lA4buG2lMoGACo_CtUEy-1" vertex="1">
                    <mxGeometry y="26" width="130" height="64" as="geometry"/>
                </mxCell>
                <mxCell id="lA4buG2lMoGACo_CtUEy-3" value="" style="line;strokeWidth=1;fillColor=none;align=left;verticalAlign=middle;spacingTop=-1;spacingLeft=3;spacingRight=3;rotatable=0;labelPosition=right;points=[];portConstraint=eastwest;strokeColor=inherit;" parent="lA4buG2lMoGACo_CtUEy-1" vertex="1">
                    <mxGeometry y="90" width="130" height="10" as="geometry"/>
                </mxCell>
                <mxCell id="lA4buG2lMoGACo_CtUEy-5" value="State" style="swimlane;fontStyle=1;align=center;verticalAlign=top;childLayout=stackLayout;horizontal=1;startSize=26;horizontalStack=0;resizeParent=1;resizeParentMax=0;resizeLast=0;collapsible=1;marginBottom=0;whiteSpace=wrap;html=1;" parent="WIyWlLk6GJQsqaUBKTNV-1" vertex="1">
                    <mxGeometry x="1510" y="-169" width="160" height="88" as="geometry"/>
                </mxCell>
                <mxCell id="lA4buG2lMoGACo_CtUEy-6" value="+ Id: string&lt;div&gt;+ name: string,&lt;/div&gt;&lt;div&gt;+ color: string&lt;/div&gt;" style="text;strokeColor=none;fillColor=none;align=left;verticalAlign=top;spacingLeft=4;spacingRight=4;overflow=hidden;rotatable=0;points=[[0,0.5],[1,0.5]];portConstraint=eastwest;whiteSpace=wrap;html=1;" parent="lA4buG2lMoGACo_CtUEy-5" vertex="1">
                    <mxGeometry y="26" width="160" height="54" as="geometry"/>
                </mxCell>
                <mxCell id="lA4buG2lMoGACo_CtUEy-7" value="" style="line;strokeWidth=1;fillColor=none;align=left;verticalAlign=middle;spacingTop=-1;spacingLeft=3;spacingRight=3;rotatable=0;labelPosition=right;points=[];portConstraint=eastwest;strokeColor=inherit;" parent="lA4buG2lMoGACo_CtUEy-5" vertex="1">
                    <mxGeometry y="80" width="160" height="8" as="geometry"/>
                </mxCell>
                <mxCell id="lA4buG2lMoGACo_CtUEy-9" value="TicketComment" style="swimlane;fontStyle=1;align=center;verticalAlign=top;childLayout=stackLayout;horizontal=1;startSize=26;horizontalStack=0;resizeParent=1;resizeParentMax=0;resizeLast=0;collapsible=1;marginBottom=0;whiteSpace=wrap;html=1;" parent="WIyWlLk6GJQsqaUBKTNV-1" vertex="1">
                    <mxGeometry x="1510" y="91" width="130" height="108" as="geometry"/>
                </mxCell>
                <mxCell id="lA4buG2lMoGACo_CtUEy-10" value="+ Id: String&lt;div&gt;+ Author:&amp;nbsp;&lt;/div&gt;&lt;div&gt;+ Content: String&lt;/div&gt;&lt;div&gt;+ CreationDate: Date&lt;/div&gt;" style="text;strokeColor=none;fillColor=none;align=left;verticalAlign=top;spacingLeft=4;spacingRight=4;overflow=hidden;rotatable=0;points=[[0,0.5],[1,0.5]];portConstraint=eastwest;whiteSpace=wrap;html=1;" parent="lA4buG2lMoGACo_CtUEy-9" vertex="1">
                    <mxGeometry y="26" width="130" height="74" as="geometry"/>
                </mxCell>
                <mxCell id="lA4buG2lMoGACo_CtUEy-11" value="" style="line;strokeWidth=1;fillColor=none;align=left;verticalAlign=middle;spacingTop=-1;spacingLeft=3;spacingRight=3;rotatable=0;labelPosition=right;points=[];portConstraint=eastwest;strokeColor=inherit;" parent="lA4buG2lMoGACo_CtUEy-9" vertex="1">
                    <mxGeometry y="100" width="130" height="8" as="geometry"/>
                </mxCell>
                <mxCell id="hy1oDO8q6_hWIqTfd9-p-1" value="Ticket" style="swimlane;fontStyle=1;align=center;verticalAlign=top;childLayout=stackLayout;horizontal=1;startSize=26;horizontalStack=0;resizeParent=1;resizeParentMax=0;resizeLast=0;collapsible=1;marginBottom=0;whiteSpace=wrap;html=1;" parent="WIyWlLk6GJQsqaUBKTNV-1" vertex="1">
                    <mxGeometry x="1510" y="-469" width="200" height="238" as="geometry"/>
                </mxCell>
                <mxCell id="hy1oDO8q6_hWIqTfd9-p-2" value="&lt;div&gt;+ Id: Guid&lt;/div&gt;+ Title: String&lt;br style=&quot;padding: 0px; margin: 0px;&quot;&gt;+ Description: String?&lt;div&gt;+ Priority: Priority&lt;br style=&quot;padding: 0px; margin: 0px;&quot;&gt;+ Author: String&lt;br style=&quot;padding: 0px; margin: 0px;&quot;&gt;+ CreationDate: Date&lt;br style=&quot;padding: 0px; margin: 0px;&quot;&gt;+ State: State&lt;div&gt;+ Attachments: TicketAttachment[]&lt;br style=&quot;padding: 0px; margin: 0px;&quot;&gt;+ Comments: TicketComments[]&lt;br style=&quot;padding: 0px; margin: 0px;&quot;&gt;+ Building: Building?&lt;/div&gt;&lt;div&gt;+ Room: String?&lt;/div&gt;&lt;div&gt;+ Object: String?&lt;/div&gt;&lt;div&gt;&lt;br&gt;&lt;/div&gt;&lt;/div&gt;" style="text;strokeColor=none;fillColor=none;align=left;verticalAlign=top;spacingLeft=4;spacingRight=4;overflow=hidden;rotatable=0;points=[[0,0.5],[1,0.5]];portConstraint=eastwest;whiteSpace=wrap;html=1;" parent="hy1oDO8q6_hWIqTfd9-p-1" vertex="1">
                    <mxGeometry y="26" width="200" height="204" as="geometry"/>
                </mxCell>
                <mxCell id="hy1oDO8q6_hWIqTfd9-p-3" value="" style="line;strokeWidth=1;fillColor=none;align=left;verticalAlign=middle;spacingTop=-1;spacingLeft=3;spacingRight=3;rotatable=0;labelPosition=right;points=[];portConstraint=eastwest;strokeColor=inherit;" parent="hy1oDO8q6_hWIqTfd9-p-1" vertex="1">
                    <mxGeometry y="230" width="200" height="8" as="geometry"/>
                </mxCell>
                <mxCell id="hy1oDO8q6_hWIqTfd9-p-6" value="&lt;div&gt;&lt;span style=&quot;background-color: initial;&quot;&gt;&lt;i&gt;Repository&amp;lt;TEntity, TId&amp;gt;&lt;/i&gt;&lt;/span&gt;&lt;br&gt;&lt;/div&gt;" style="swimlane;fontStyle=1;align=center;verticalAlign=top;childLayout=stackLayout;horizontal=1;startSize=30;horizontalStack=0;resizeParent=1;resizeParentMax=0;resizeLast=0;collapsible=1;marginBottom=0;whiteSpace=wrap;html=1;" parent="WIyWlLk6GJQsqaUBKTNV-1" vertex="1">
                    <mxGeometry x="1075" y="930" width="380" height="130" as="geometry"/>
                </mxCell>
                <mxCell id="hy1oDO8q6_hWIqTfd9-p-7" value="&lt;div&gt;&lt;br&gt;&lt;/div&gt;" style="text;strokeColor=none;fillColor=none;align=left;verticalAlign=top;spacingLeft=4;spacingRight=4;overflow=hidden;rotatable=0;points=[[0,0.5],[1,0.5]];portConstraint=eastwest;whiteSpace=wrap;html=1;" parent="hy1oDO8q6_hWIqTfd9-p-6" vertex="1">
                    <mxGeometry y="30" width="380" height="4" as="geometry"/>
                </mxCell>
                <mxCell id="hy1oDO8q6_hWIqTfd9-p-8" value="" style="line;strokeWidth=1;fillColor=none;align=left;verticalAlign=middle;spacingTop=-1;spacingLeft=3;spacingRight=3;rotatable=0;labelPosition=right;points=[];portConstraint=eastwest;strokeColor=inherit;" parent="hy1oDO8q6_hWIqTfd9-p-6" vertex="1">
                    <mxGeometry y="34" width="380" height="10" as="geometry"/>
                </mxCell>
                <mxCell id="hy1oDO8q6_hWIqTfd9-p-9" value="&lt;div&gt;+ &amp;lt;&amp;lt;virtual&amp;gt;&amp;gt; GetAsync(id: TId): Task&amp;lt;TEntity?&amp;gt;&lt;br&gt;&lt;/div&gt;&lt;div&gt;+ &amp;lt;&amp;lt;virtual&amp;gt;&amp;gt; FindAsync(Expression&amp;lt;Func&amp;lt;TEntity, bool&amp;gt;&amp;gt;): TEntity&lt;/div&gt;+ &amp;lt;&amp;lt;virtual&amp;gt;&amp;gt; AddAsync(TEntity): Task&amp;lt;TEntity&amp;gt;&lt;div&gt;+ &amp;lt;&amp;lt;virtual&amp;gt;&amp;gt; UpdateAsync(TEntity): Task&amp;nbsp;&lt;/div&gt;&lt;div&gt;+ &amp;lt;&amp;lt;virtual&amp;gt;&amp;gt; DeleteAsync(TEntity): Task&lt;/div&gt;" style="text;strokeColor=none;fillColor=none;align=left;verticalAlign=top;spacingLeft=4;spacingRight=4;overflow=hidden;rotatable=0;points=[[0,0.5],[1,0.5]];portConstraint=eastwest;whiteSpace=wrap;html=1;" parent="hy1oDO8q6_hWIqTfd9-p-6" vertex="1">
                    <mxGeometry y="44" width="380" height="86" as="geometry"/>
                </mxCell>
                <mxCell id="hy1oDO8q6_hWIqTfd9-p-10" value="ConfigFileDTO" style="swimlane;fontStyle=1;align=center;verticalAlign=top;childLayout=stackLayout;horizontal=1;startSize=26;horizontalStack=0;resizeParent=1;resizeParentMax=0;resizeLast=0;collapsible=1;marginBottom=0;whiteSpace=wrap;html=1;" parent="WIyWlLk6GJQsqaUBKTNV-1" vertex="1">
                    <mxGeometry x="460" y="800" width="200" height="150" as="geometry"/>
                </mxCell>
                <mxCell id="hy1oDO8q6_hWIqTfd9-p-11" value="&lt;div&gt;+ JWTKey: String&lt;/div&gt;&lt;div&gt;+ DefaultConnection: String&lt;/div&gt;&lt;div&gt;+ SessionLifeTime: Strng&lt;/div&gt;&lt;div&gt;+ LDAPHost: String&lt;/div&gt;&lt;div&gt;+ LDAPPort: String&lt;/div&gt;&lt;div&gt;+ LDAPBaseDN: String&lt;/div&gt;" style="text;strokeColor=none;fillColor=none;align=left;verticalAlign=top;spacingLeft=4;spacingRight=4;overflow=hidden;rotatable=0;points=[[0,0.5],[1,0.5]];portConstraint=eastwest;whiteSpace=wrap;html=1;" parent="hy1oDO8q6_hWIqTfd9-p-10" vertex="1">
                    <mxGeometry y="26" width="200" height="114" as="geometry"/>
                </mxCell>
                <mxCell id="hy1oDO8q6_hWIqTfd9-p-12" value="" style="line;strokeWidth=1;fillColor=none;align=left;verticalAlign=middle;spacingTop=-1;spacingLeft=3;spacingRight=3;rotatable=0;labelPosition=right;points=[];portConstraint=eastwest;strokeColor=inherit;" parent="hy1oDO8q6_hWIqTfd9-p-10" vertex="1">
                    <mxGeometry y="140" width="200" height="10" as="geometry"/>
                </mxCell>
                <mxCell id="hy1oDO8q6_hWIqTfd9-p-22" value="&lt;div&gt;&lt;span style=&quot;background-color: initial;&quot;&gt;TicketCommentRepository :&amp;nbsp;&lt;/span&gt;&lt;span style=&quot;background-color: initial;&quot;&gt;Repository&amp;lt;TicketComment, Guid&amp;gt;&lt;/span&gt;&lt;br&gt;&lt;/div&gt;" style="swimlane;fontStyle=1;align=center;verticalAlign=top;childLayout=stackLayout;horizontal=1;startSize=40;horizontalStack=0;resizeParent=1;resizeParentMax=0;resizeLast=0;collapsible=1;marginBottom=0;whiteSpace=wrap;html=1;" parent="WIyWlLk6GJQsqaUBKTNV-1" vertex="1">
                    <mxGeometry x="1080" y="119" width="370" height="54" as="geometry"/>
                </mxCell>
                <mxCell id="hy1oDO8q6_hWIqTfd9-p-23" value="&lt;div&gt;&lt;br&gt;&lt;/div&gt;" style="text;strokeColor=none;fillColor=none;align=left;verticalAlign=top;spacingLeft=4;spacingRight=4;overflow=hidden;rotatable=0;points=[[0,0.5],[1,0.5]];portConstraint=eastwest;whiteSpace=wrap;html=1;" parent="hy1oDO8q6_hWIqTfd9-p-22" vertex="1">
                    <mxGeometry y="40" width="370" height="4" as="geometry"/>
                </mxCell>
                <mxCell id="hy1oDO8q6_hWIqTfd9-p-24" value="" style="line;strokeWidth=1;fillColor=none;align=left;verticalAlign=middle;spacingTop=-1;spacingLeft=3;spacingRight=3;rotatable=0;labelPosition=right;points=[];portConstraint=eastwest;strokeColor=inherit;" parent="hy1oDO8q6_hWIqTfd9-p-22" vertex="1">
                    <mxGeometry y="44" width="370" height="10" as="geometry"/>
                </mxCell>
                <mxCell id="hy1oDO8q6_hWIqTfd9-p-29" value="&lt;div&gt;&lt;span style=&quot;background-color: initial;&quot;&gt;State&lt;/span&gt;&lt;span style=&quot;background-color: initial;&quot;&gt;Repository&lt;/span&gt;&lt;span style=&quot;background-color: initial;&quot;&gt;&amp;nbsp;&lt;/span&gt;&lt;span style=&quot;background-color: initial;&quot;&gt;:&amp;nbsp;&lt;/span&gt;&lt;span style=&quot;background-color: initial;&quot;&gt;Repository&amp;lt;Ticket, Guid&amp;gt;&lt;/span&gt;&lt;/div&gt;" style="swimlane;fontStyle=1;align=center;verticalAlign=top;childLayout=stackLayout;horizontal=1;startSize=40;horizontalStack=0;resizeParent=1;resizeParentMax=0;resizeLast=0;collapsible=1;marginBottom=0;whiteSpace=wrap;html=1;" parent="WIyWlLk6GJQsqaUBKTNV-1" vertex="1">
                    <mxGeometry x="1080" y="-156" width="260" height="54" as="geometry"/>
                </mxCell>
                <mxCell id="hy1oDO8q6_hWIqTfd9-p-30" value="&lt;div&gt;&lt;br&gt;&lt;/div&gt;" style="text;strokeColor=none;fillColor=none;align=left;verticalAlign=top;spacingLeft=4;spacingRight=4;overflow=hidden;rotatable=0;points=[[0,0.5],[1,0.5]];portConstraint=eastwest;whiteSpace=wrap;html=1;" parent="hy1oDO8q6_hWIqTfd9-p-29" vertex="1">
                    <mxGeometry y="40" width="260" height="4" as="geometry"/>
                </mxCell>
                <mxCell id="hy1oDO8q6_hWIqTfd9-p-31" value="" style="line;strokeWidth=1;fillColor=none;align=left;verticalAlign=middle;spacingTop=-1;spacingLeft=3;spacingRight=3;rotatable=0;labelPosition=right;points=[];portConstraint=eastwest;strokeColor=inherit;" parent="hy1oDO8q6_hWIqTfd9-p-29" vertex="1">
                    <mxGeometry y="44" width="260" height="10" as="geometry"/>
                </mxCell>
                <mxCell id="hy1oDO8q6_hWIqTfd9-p-36" value="&lt;div&gt;&lt;span style=&quot;background-color: initial;&quot;&gt;StateController:&amp;nbsp;&lt;/span&gt;&lt;span style=&quot;background-color: initial;&quot;&gt;CRUDController&lt;/span&gt;&lt;span style=&quot;background-color: initial;&quot;&gt;&amp;nbsp;&lt;/span&gt;&lt;br&gt;&lt;/div&gt;" style="swimlane;fontStyle=1;align=center;verticalAlign=top;childLayout=stackLayout;horizontal=1;startSize=30;horizontalStack=0;resizeParent=1;resizeParentMax=0;resizeLast=0;collapsible=1;marginBottom=0;whiteSpace=wrap;html=1;" parent="WIyWlLk6GJQsqaUBKTNV-1" vertex="1">
                    <mxGeometry x="320" y="-180" width="390" height="130" as="geometry"/>
                </mxCell>
                <mxCell id="hy1oDO8q6_hWIqTfd9-p-37" value="&lt;div&gt;&lt;br&gt;&lt;/div&gt;" style="text;strokeColor=none;fillColor=none;align=left;verticalAlign=top;spacingLeft=4;spacingRight=4;overflow=hidden;rotatable=0;points=[[0,0.5],[1,0.5]];portConstraint=eastwest;whiteSpace=wrap;html=1;" parent="hy1oDO8q6_hWIqTfd9-p-36" vertex="1">
                    <mxGeometry y="30" width="390" height="4" as="geometry"/>
                </mxCell>
                <mxCell id="bqDy925foOsLshB6MztX-61" value="- repository : StateRepository" style="text;html=1;align=left;verticalAlign=middle;whiteSpace=wrap;rounded=0;spacingLeft=10;spacingRight=10;" parent="hy1oDO8q6_hWIqTfd9-p-36" vertex="1">
                    <mxGeometry y="34" width="390" height="20" as="geometry"/>
                </mxCell>
                <mxCell id="hy1oDO8q6_hWIqTfd9-p-38" value="" style="line;strokeWidth=1;fillColor=none;align=left;verticalAlign=middle;spacingTop=-1;spacingLeft=3;spacingRight=3;rotatable=0;labelPosition=right;points=[];portConstraint=eastwest;strokeColor=inherit;" parent="hy1oDO8q6_hWIqTfd9-p-36" vertex="1">
                    <mxGeometry y="54" width="390" height="10" as="geometry"/>
                </mxCell>
                <mxCell id="bqDy925foOsLshB6MztX-58" value="&lt;div&gt;+ Get() : State[]&lt;/div&gt;&lt;div&gt;+ Post(state: State) : State&lt;br&gt;&lt;/div&gt;&lt;div&gt;+ Put(state: State) : State&lt;br&gt;&lt;/div&gt;&lt;div&gt;+ Delete(id: String)&lt;br&gt;&lt;/div&gt;" style="text;html=1;align=left;verticalAlign=middle;whiteSpace=wrap;rounded=0;spacingLeft=10;spacingRight=10;" parent="hy1oDO8q6_hWIqTfd9-p-36" vertex="1">
                    <mxGeometry y="64" width="390" height="66" as="geometry"/>
                </mxCell>
                <mxCell id="hy1oDO8q6_hWIqTfd9-p-48" value="&lt;div&gt;&lt;span style=&quot;background-color: initial;&quot;&gt;TicketController:&amp;nbsp;&lt;/span&gt;&lt;span style=&quot;background-color: initial;&quot;&gt;CRUDController&lt;/span&gt;&lt;span style=&quot;background-color: initial;&quot;&gt;&amp;nbsp;&lt;/span&gt;&lt;br&gt;&lt;/div&gt;" style="swimlane;fontStyle=1;align=center;verticalAlign=top;childLayout=stackLayout;horizontal=1;startSize=30;horizontalStack=0;resizeParent=1;resizeParentMax=0;resizeLast=0;collapsible=1;marginBottom=0;whiteSpace=wrap;html=1;" parent="WIyWlLk6GJQsqaUBKTNV-1" vertex="1">
                    <mxGeometry x="320" y="-520" width="480" height="280" as="geometry"/>
                </mxCell>
                <mxCell id="bqDy925foOsLshB6MztX-60" value="&lt;div&gt;- repository : TicketRepository&lt;/div&gt;&lt;div&gt;- commentRepository: TicketCommentRepository&lt;/div&gt;&lt;div&gt;- attachmentRepository: TicketAttachmentRepository&lt;br&gt;&lt;/div&gt;" style="text;html=1;align=left;verticalAlign=middle;whiteSpace=wrap;rounded=0;spacingLeft=10;spacingRight=10;" parent="hy1oDO8q6_hWIqTfd9-p-48" vertex="1">
                    <mxGeometry y="30" width="480" height="50" as="geometry"/>
                </mxCell>
                <mxCell id="hy1oDO8q6_hWIqTfd9-p-49" value="&lt;div&gt;&lt;br&gt;&lt;/div&gt;" style="text;strokeColor=none;fillColor=none;align=left;verticalAlign=top;spacingLeft=4;spacingRight=4;overflow=hidden;rotatable=0;points=[[0,0.5],[1,0.5]];portConstraint=eastwest;whiteSpace=wrap;html=1;" parent="hy1oDO8q6_hWIqTfd9-p-48" vertex="1">
                    <mxGeometry y="80" width="480" height="4" as="geometry"/>
                </mxCell>
                <mxCell id="hy1oDO8q6_hWIqTfd9-p-50" value="" style="line;strokeWidth=1;fillColor=none;align=left;verticalAlign=middle;spacingTop=-1;spacingLeft=3;spacingRight=3;rotatable=0;labelPosition=right;points=[];portConstraint=eastwest;strokeColor=inherit;" parent="hy1oDO8q6_hWIqTfd9-p-48" vertex="1">
                    <mxGeometry y="84" width="480" height="10" as="geometry"/>
                </mxCell>
                <mxCell id="bqDy925foOsLshB6MztX-59" value="&lt;div&gt;+ Get(id: string) : Ticket&lt;br&gt;&lt;/div&gt;&lt;div&gt;+ Get(searchTerm: string [0..1], skip: int [0..1], take: int [0..1]) : Ticket[]&lt;/div&gt;&lt;div&gt;+ GetComments(ticketId: string) : TicketComments[]&lt;/div&gt;&lt;div&gt;+ GetAttachments(ticketId: string) : TicketAttachments[]&lt;/div&gt;&lt;div&gt;&lt;br&gt;&lt;/div&gt;&lt;div&gt;+ Post(ticket: Ticket) : Ticket&lt;/div&gt;&lt;div&gt;+ PostComment(ticketId: string, comment: TicketComment) : TicketComment&lt;/div&gt;&lt;div&gt;+ PostAttachment(ticketId: string, attachment: TicketAttachment) : TicketAttachment&lt;/div&gt;&lt;div&gt;&lt;br&gt;&lt;/div&gt;&lt;div&gt;+ Put(ticket: Ticket) : Ticket&lt;/div&gt;&lt;div&gt;&lt;br&gt;&lt;/div&gt;&lt;div&gt;+ Delete(id: string)&lt;/div&gt;" style="text;html=1;align=left;verticalAlign=middle;whiteSpace=wrap;rounded=0;spacingLeft=10;spacingRight=10;" parent="hy1oDO8q6_hWIqTfd9-p-48" vertex="1">
                    <mxGeometry y="94" width="480" height="186" as="geometry"/>
                </mxCell>
                <mxCell id="o9PLWf0R3HBw7IpNgMBT-3" value="Priority" style="swimlane;fontStyle=1;align=center;verticalAlign=top;childLayout=stackLayout;horizontal=1;startSize=26;horizontalStack=0;resizeParent=1;resizeParentMax=0;resizeLast=0;collapsible=1;marginBottom=0;whiteSpace=wrap;html=1;" parent="WIyWlLk6GJQsqaUBKTNV-1" vertex="1">
                    <mxGeometry x="1510" y="241" width="160" height="88" as="geometry"/>
                </mxCell>
                <mxCell id="o9PLWf0R3HBw7IpNgMBT-4" value="&lt;div&gt;+ Id: String&lt;/div&gt;+ Title: String,&lt;div&gt;+ Value: Int&lt;/div&gt;" style="text;strokeColor=none;fillColor=none;align=left;verticalAlign=top;spacingLeft=4;spacingRight=4;overflow=hidden;rotatable=0;points=[[0,0.5],[1,0.5]];portConstraint=eastwest;whiteSpace=wrap;html=1;" parent="o9PLWf0R3HBw7IpNgMBT-3" vertex="1">
                    <mxGeometry y="26" width="160" height="54" as="geometry"/>
                </mxCell>
                <mxCell id="o9PLWf0R3HBw7IpNgMBT-5" value="" style="line;strokeWidth=1;fillColor=none;align=left;verticalAlign=middle;spacingTop=-1;spacingLeft=3;spacingRight=3;rotatable=0;labelPosition=right;points=[];portConstraint=eastwest;strokeColor=inherit;" parent="o9PLWf0R3HBw7IpNgMBT-3" vertex="1">
                    <mxGeometry y="80" width="160" height="8" as="geometry"/>
                </mxCell>
                <mxCell id="o9PLWf0R3HBw7IpNgMBT-6" value="RefreshToken" style="swimlane;fontStyle=1;align=center;verticalAlign=top;childLayout=stackLayout;horizontal=1;startSize=26;horizontalStack=0;resizeParent=1;resizeParentMax=0;resizeLast=0;collapsible=1;marginBottom=0;whiteSpace=wrap;html=1;" parent="WIyWlLk6GJQsqaUBKTNV-1" vertex="1">
                    <mxGeometry x="1510" y="615" width="240" height="110" as="geometry"/>
                </mxCell>
                <mxCell id="o9PLWf0R3HBw7IpNgMBT-7" value="&lt;div&gt;+ Id: Guid&lt;/div&gt;&lt;div&gt;+ Token: string&lt;/div&gt;&lt;div&gt;+ UserId: string&lt;/div&gt;&lt;div&gt;+ CreationDateTime: DateTime&lt;/div&gt;" style="text;strokeColor=none;fillColor=none;align=left;verticalAlign=top;spacingLeft=4;spacingRight=4;overflow=hidden;rotatable=0;points=[[0,0.5],[1,0.5]];portConstraint=eastwest;whiteSpace=wrap;html=1;" parent="o9PLWf0R3HBw7IpNgMBT-6" vertex="1">
                    <mxGeometry y="26" width="240" height="74" as="geometry"/>
                </mxCell>
                <mxCell id="o9PLWf0R3HBw7IpNgMBT-8" value="" style="line;strokeWidth=1;fillColor=none;align=left;verticalAlign=middle;spacingTop=-1;spacingLeft=3;spacingRight=3;rotatable=0;labelPosition=right;points=[];portConstraint=eastwest;strokeColor=inherit;" parent="o9PLWf0R3HBw7IpNgMBT-6" vertex="1">
                    <mxGeometry y="100" width="240" height="10" as="geometry"/>
                </mxCell>
                <mxCell id="o9PLWf0R3HBw7IpNgMBT-9" value="RoleAssignment" style="swimlane;fontStyle=1;align=center;verticalAlign=top;childLayout=stackLayout;horizontal=1;startSize=26;horizontalStack=0;resizeParent=1;resizeParentMax=0;resizeLast=0;collapsible=1;marginBottom=0;whiteSpace=wrap;html=1;" parent="WIyWlLk6GJQsqaUBKTNV-1" vertex="1">
                    <mxGeometry x="1510" y="509" width="240" height="76" as="geometry"/>
                </mxCell>
                <mxCell id="o9PLWf0R3HBw7IpNgMBT-10" value="+ UserId: String&lt;div&gt;+ Type: Int&lt;/div&gt;" style="text;strokeColor=none;fillColor=none;align=left;verticalAlign=top;spacingLeft=4;spacingRight=4;overflow=hidden;rotatable=0;points=[[0,0.5],[1,0.5]];portConstraint=eastwest;whiteSpace=wrap;html=1;" parent="o9PLWf0R3HBw7IpNgMBT-9" vertex="1">
                    <mxGeometry y="26" width="240" height="40" as="geometry"/>
                </mxCell>
                <mxCell id="o9PLWf0R3HBw7IpNgMBT-11" value="" style="line;strokeWidth=1;fillColor=none;align=left;verticalAlign=middle;spacingTop=-1;spacingLeft=3;spacingRight=3;rotatable=0;labelPosition=right;points=[];portConstraint=eastwest;strokeColor=inherit;" parent="o9PLWf0R3HBw7IpNgMBT-9" vertex="1">
                    <mxGeometry y="66" width="240" height="10" as="geometry"/>
                </mxCell>
                <mxCell id="o9PLWf0R3HBw7IpNgMBT-12" value="RefreshToken&lt;span style=&quot;background-color: initial;&quot;&gt;Repository&lt;/span&gt;&lt;span style=&quot;background-color: initial;&quot;&gt;&amp;nbsp;&lt;/span&gt;&lt;span style=&quot;background-color: initial;&quot;&gt;:&amp;nbsp;&lt;/span&gt;&lt;span style=&quot;background-color: initial;&quot;&gt;Repository&amp;lt;&lt;/span&gt;RefreshToken&lt;span style=&quot;background-color: initial;&quot;&gt;, Guid&amp;gt;&lt;/span&gt;" style="swimlane;fontStyle=1;align=center;verticalAlign=top;childLayout=stackLayout;horizontal=1;startSize=40;horizontalStack=0;resizeParent=1;resizeParentMax=0;resizeLast=0;collapsible=1;marginBottom=0;whiteSpace=wrap;html=1;" parent="WIyWlLk6GJQsqaUBKTNV-1" vertex="1">
                    <mxGeometry x="1080" y="643" width="350" height="54" as="geometry"/>
                </mxCell>
                <mxCell id="o9PLWf0R3HBw7IpNgMBT-13" value="&lt;div&gt;&lt;br&gt;&lt;/div&gt;" style="text;strokeColor=none;fillColor=none;align=left;verticalAlign=top;spacingLeft=4;spacingRight=4;overflow=hidden;rotatable=0;points=[[0,0.5],[1,0.5]];portConstraint=eastwest;whiteSpace=wrap;html=1;" parent="o9PLWf0R3HBw7IpNgMBT-12" vertex="1">
                    <mxGeometry y="40" width="350" height="4" as="geometry"/>
                </mxCell>
                <mxCell id="o9PLWf0R3HBw7IpNgMBT-14" value="" style="line;strokeWidth=1;fillColor=none;align=left;verticalAlign=middle;spacingTop=-1;spacingLeft=3;spacingRight=3;rotatable=0;labelPosition=right;points=[];portConstraint=eastwest;strokeColor=inherit;" parent="o9PLWf0R3HBw7IpNgMBT-12" vertex="1">
                    <mxGeometry y="44" width="350" height="10" as="geometry"/>
                </mxCell>
                <mxCell id="o9PLWf0R3HBw7IpNgMBT-16" value="Building" style="swimlane;fontStyle=1;align=center;verticalAlign=top;childLayout=stackLayout;horizontal=1;startSize=26;horizontalStack=0;resizeParent=1;resizeParentMax=0;resizeLast=0;collapsible=1;marginBottom=0;whiteSpace=wrap;html=1;" parent="WIyWlLk6GJQsqaUBKTNV-1" vertex="1">
                    <mxGeometry x="1510" y="371" width="160" height="88" as="geometry"/>
                </mxCell>
                <mxCell id="o9PLWf0R3HBw7IpNgMBT-17" value="+ Id: string&lt;div&gt;+ Name:string&lt;/div&gt;" style="text;strokeColor=none;fillColor=none;align=left;verticalAlign=top;spacingLeft=4;spacingRight=4;overflow=hidden;rotatable=0;points=[[0,0.5],[1,0.5]];portConstraint=eastwest;whiteSpace=wrap;html=1;" parent="o9PLWf0R3HBw7IpNgMBT-16" vertex="1">
                    <mxGeometry y="26" width="160" height="54" as="geometry"/>
                </mxCell>
                <mxCell id="o9PLWf0R3HBw7IpNgMBT-18" value="" style="line;strokeWidth=1;fillColor=none;align=left;verticalAlign=middle;spacingTop=-1;spacingLeft=3;spacingRight=3;rotatable=0;labelPosition=right;points=[];portConstraint=eastwest;strokeColor=inherit;" parent="o9PLWf0R3HBw7IpNgMBT-16" vertex="1">
                    <mxGeometry y="80" width="160" height="8" as="geometry"/>
                </mxCell>
                <mxCell id="42" value="" style="edgeStyle=none;html=1;strokeColor=default;strokeWidth=1;fontSize=13;startArrow=none;startFill=0;endArrow=open;endFill=0;startSize=12;endSize=8;targetPerimeterSpacing=0;" parent="WIyWlLk6GJQsqaUBKTNV-1" source="o9PLWf0R3HBw7IpNgMBT-19" target="hy1oDO8q6_hWIqTfd9-p-1" edge="1">
                    <mxGeometry relative="1" as="geometry"/>
                </mxCell>
                <mxCell id="o9PLWf0R3HBw7IpNgMBT-19" value="&lt;div&gt;&lt;span style=&quot;background-color: initial;&quot;&gt;TicketRepository :&amp;nbsp;&lt;/span&gt;&lt;span style=&quot;background-color: initial;&quot;&gt;Repository&amp;lt;Ticket, Guid&amp;gt;&lt;/span&gt;&lt;br&gt;&lt;/div&gt;" style="swimlane;fontStyle=1;align=center;verticalAlign=top;childLayout=stackLayout;horizontal=1;startSize=40;horizontalStack=0;resizeParent=1;resizeParentMax=0;resizeLast=0;collapsible=1;marginBottom=0;whiteSpace=wrap;html=1;" parent="WIyWlLk6GJQsqaUBKTNV-1" vertex="1">
                    <mxGeometry x="1080" y="-377" width="270" height="54" as="geometry"/>
                </mxCell>
                <mxCell id="o9PLWf0R3HBw7IpNgMBT-20" value="&lt;div&gt;&lt;br&gt;&lt;/div&gt;" style="text;strokeColor=none;fillColor=none;align=left;verticalAlign=top;spacingLeft=4;spacingRight=4;overflow=hidden;rotatable=0;points=[[0,0.5],[1,0.5]];portConstraint=eastwest;whiteSpace=wrap;html=1;" parent="o9PLWf0R3HBw7IpNgMBT-19" vertex="1">
                    <mxGeometry y="40" width="270" height="4" as="geometry"/>
                </mxCell>
                <mxCell id="o9PLWf0R3HBw7IpNgMBT-21" value="" style="line;strokeWidth=1;fillColor=none;align=left;verticalAlign=middle;spacingTop=-1;spacingLeft=3;spacingRight=3;rotatable=0;labelPosition=right;points=[];portConstraint=eastwest;strokeColor=inherit;" parent="o9PLWf0R3HBw7IpNgMBT-19" vertex="1">
                    <mxGeometry y="44" width="270" height="10" as="geometry"/>
                </mxCell>
                <mxCell id="10" value="" style="edgeStyle=orthogonalEdgeStyle;strokeColor=default;startArrow=diamondThin;startFill=1;endArrow=none;endFill=0;targetPerimeterSpacing=1;strokeWidth=1;endSize=12;startSize=12;html=1;fontSize=13;exitX=1.001;exitY=0.799;exitDx=0;exitDy=0;exitPerimeter=0;entryX=1;entryY=0.5;entryDx=0;entryDy=0;" parent="WIyWlLk6GJQsqaUBKTNV-1" source="hy1oDO8q6_hWIqTfd9-p-2" target="lA4buG2lMoGACo_CtUEy-6" edge="1">
                    <mxGeometry x="0.9589" y="106" relative="1" as="geometry">
                        <mxPoint x="1653.9984070796459" y="-340" as="sourcePoint"/>
                        <mxPoint x="1655.0470796460177" y="-419" as="targetPoint"/>
                        <mxPoint as="offset"/>
                        <Array as="points">
                            <mxPoint x="1790" y="-280"/>
                            <mxPoint x="1790" y="-116"/>
                        </Array>
                    </mxGeometry>
                </mxCell>
                <mxCell id="c8B9iwDZ1kwt0dOKmhG3-80" value="1" style="edgeLabel;html=1;align=center;verticalAlign=middle;resizable=0;points=[];" parent="10" vertex="1" connectable="0">
                    <mxGeometry x="0.8601" relative="1" as="geometry">
                        <mxPoint as="offset"/>
                    </mxGeometry>
                </mxCell>
                <mxCell id="c8B9iwDZ1kwt0dOKmhG3-81" value="*" style="edgeLabel;html=1;align=center;verticalAlign=middle;resizable=0;points=[];" parent="10" vertex="1" connectable="0">
                    <mxGeometry x="-0.7961" y="2" relative="1" as="geometry">
                        <mxPoint as="offset"/>
                    </mxGeometry>
                </mxCell>
                <mxCell id="16" value="" style="edgeStyle=orthogonalEdgeStyle;html=1;strokeColor=default;startArrow=diamondThin;startFill=0;endArrow=none;endFill=0;targetPerimeterSpacing=1;strokeWidth=1;endSize=12;startSize=12;fontSize=26;entryX=1;entryY=0.5;entryDx=0;entryDy=0;exitX=0.994;exitY=0.451;exitDx=0;exitDy=0;exitPerimeter=0;" parent="WIyWlLk6GJQsqaUBKTNV-1" source="hy1oDO8q6_hWIqTfd9-p-2" target="lA4buG2lMoGACo_CtUEy-10" edge="1">
                    <mxGeometry x="0.9589" y="106" relative="1" as="geometry">
                        <mxPoint x="1650" y="-529.0033333333331" as="sourcePoint"/>
                        <mxPoint x="1718.4768211920527" y="-485.9200000000001" as="targetPoint"/>
                        <mxPoint as="offset"/>
                        <Array as="points">
                            <mxPoint x="1870" y="-351"/>
                            <mxPoint x="1870" y="154"/>
                        </Array>
                    </mxGeometry>
                </mxCell>
                <mxCell id="c8B9iwDZ1kwt0dOKmhG3-75" value="1" style="edgeLabel;html=1;align=center;verticalAlign=middle;resizable=0;points=[];" parent="16" vertex="1" connectable="0">
                    <mxGeometry x="-0.929" y="1" relative="1" as="geometry">
                        <mxPoint x="9" as="offset"/>
                    </mxGeometry>
                </mxCell>
                <mxCell id="c8B9iwDZ1kwt0dOKmhG3-77" value="*" style="edgeLabel;html=1;align=center;verticalAlign=middle;resizable=0;points=[];" parent="16" vertex="1" connectable="0">
                    <mxGeometry x="0.9325" relative="1" as="geometry">
                        <mxPoint as="offset"/>
                    </mxGeometry>
                </mxCell>
                <mxCell id="23" value="" style="edgeStyle=orthogonalEdgeStyle;html=1;strokeColor=default;startArrow=diamondThin;startFill=0;endArrow=none;endFill=0;targetPerimeterSpacing=1;strokeWidth=1;endSize=12;startSize=12;fontSize=26;entryX=1;entryY=0.5;entryDx=0;entryDy=0;exitX=1;exitY=0.608;exitDx=0;exitDy=0;exitPerimeter=0;" parent="WIyWlLk6GJQsqaUBKTNV-1" source="hy1oDO8q6_hWIqTfd9-p-2" target="lA4buG2lMoGACo_CtUEy-2" edge="1">
                    <mxGeometry x="0.9589" y="106" relative="1" as="geometry">
                        <mxPoint x="1760" y="-309" as="sourcePoint"/>
                        <mxPoint x="1859" y="-381.9756097560976" as="targetPoint"/>
                        <mxPoint as="offset"/>
                        <Array as="points">
                            <mxPoint x="1830" y="-319"/>
                            <mxPoint x="1830" y="15"/>
                        </Array>
                    </mxGeometry>
                </mxCell>
                <mxCell id="c8B9iwDZ1kwt0dOKmhG3-78" value="1" style="edgeLabel;html=1;align=center;verticalAlign=middle;resizable=0;points=[];" parent="23" vertex="1" connectable="0">
                    <mxGeometry x="-0.8773" relative="1" as="geometry">
                        <mxPoint as="offset"/>
                    </mxGeometry>
                </mxCell>
                <mxCell id="c8B9iwDZ1kwt0dOKmhG3-79" value="*" style="edgeLabel;html=1;align=center;verticalAlign=middle;resizable=0;points=[];" parent="23" vertex="1" connectable="0">
                    <mxGeometry x="0.9152" y="1" relative="1" as="geometry">
                        <mxPoint as="offset"/>
                    </mxGeometry>
                </mxCell>
                <mxCell id="32" value="" style="edgeStyle=orthogonalEdgeStyle;strokeColor=default;startArrow=diamondThin;startFill=1;endArrow=none;endFill=0;targetPerimeterSpacing=1;strokeWidth=1;endSize=12;startSize=12;html=1;fontSize=13;entryX=1;entryY=0.5;entryDx=0;entryDy=0;exitX=1.007;exitY=0.313;exitDx=0;exitDy=0;exitPerimeter=0;" parent="WIyWlLk6GJQsqaUBKTNV-1" source="hy1oDO8q6_hWIqTfd9-p-2" target="o9PLWf0R3HBw7IpNgMBT-4" edge="1">
                    <mxGeometry x="0.9589" y="106" relative="1" as="geometry">
                        <mxPoint x="1730" y="-379" as="sourcePoint"/>
                        <mxPoint x="1563.4768211920532" y="-575.92" as="targetPoint"/>
                        <mxPoint as="offset"/>
                        <Array as="points">
                            <mxPoint x="1910" y="-379"/>
                            <mxPoint x="1910" y="294"/>
                        </Array>
                    </mxGeometry>
                </mxCell>
                <mxCell id="c8B9iwDZ1kwt0dOKmhG3-72" value="1" style="edgeLabel;html=1;align=center;verticalAlign=middle;resizable=0;points=[];" parent="32" vertex="1" connectable="0">
                    <mxGeometry x="0.9529" relative="1" as="geometry">
                        <mxPoint as="offset"/>
                    </mxGeometry>
                </mxCell>
                <mxCell id="c8B9iwDZ1kwt0dOKmhG3-73" value="*" style="edgeLabel;html=1;align=center;verticalAlign=middle;resizable=0;points=[];" parent="32" vertex="1" connectable="0">
                    <mxGeometry x="-0.9221" relative="1" as="geometry">
                        <mxPoint x="-4" as="offset"/>
                    </mxGeometry>
                </mxCell>
                <mxCell id="35" value="" style="edgeStyle=orthogonalEdgeStyle;strokeColor=default;startArrow=diamondThin;startFill=1;endArrow=none;endFill=0;targetPerimeterSpacing=1;strokeWidth=1;endSize=12;startSize=12;html=1;fontSize=13;exitX=1.006;exitY=0.183;exitDx=0;exitDy=0;exitPerimeter=0;entryX=1;entryY=0.5;entryDx=0;entryDy=0;" parent="WIyWlLk6GJQsqaUBKTNV-1" source="hy1oDO8q6_hWIqTfd9-p-2" target="o9PLWf0R3HBw7IpNgMBT-17" edge="1">
                    <mxGeometry x="0.9589" y="106" relative="1" as="geometry">
                        <mxPoint x="1200.0014285714285" y="-599" as="sourcePoint"/>
                        <mxPoint x="1233.0626530612246" y="-680" as="targetPoint"/>
                        <mxPoint as="offset"/>
                        <Array as="points">
                            <mxPoint x="1950" y="-406"/>
                            <mxPoint x="1950" y="424"/>
                        </Array>
                    </mxGeometry>
                </mxCell>
                <mxCell id="c8B9iwDZ1kwt0dOKmhG3-70" value="0..1" style="edgeLabel;html=1;align=center;verticalAlign=middle;resizable=0;points=[];" parent="35" vertex="1" connectable="0">
                    <mxGeometry x="0.959" relative="1" as="geometry">
                        <mxPoint as="offset"/>
                    </mxGeometry>
                </mxCell>
                <mxCell id="c8B9iwDZ1kwt0dOKmhG3-71" value="*" style="edgeLabel;html=1;align=center;verticalAlign=middle;resizable=0;points=[];" parent="35" vertex="1" connectable="0">
                    <mxGeometry x="-0.9399" y="1" relative="1" as="geometry">
                        <mxPoint as="offset"/>
                    </mxGeometry>
                </mxCell>
                <mxCell id="43" value="" style="edgeStyle=none;html=1;strokeColor=default;strokeWidth=1;fontSize=13;startArrow=none;startFill=0;endArrow=open;endFill=0;startSize=12;endSize=8;targetPerimeterSpacing=0;exitX=1.008;exitY=0.617;exitDx=0;exitDy=0;exitPerimeter=0;" parent="WIyWlLk6GJQsqaUBKTNV-1" source="hy1oDO8q6_hWIqTfd9-p-29" target="lA4buG2lMoGACo_CtUEy-5" edge="1">
                    <mxGeometry x="0.0094" relative="1" as="geometry">
                        <mxPoint x="1380" y="-109" as="sourcePoint"/>
                        <mxPoint x="1600" y="-259" as="targetPoint"/>
                        <mxPoint as="offset"/>
                    </mxGeometry>
                </mxCell>
                <mxCell id="44" value="" style="edgeStyle=none;html=1;strokeColor=default;strokeWidth=1;fontSize=13;startArrow=none;startFill=0;endArrow=open;endFill=0;startSize=12;endSize=8;targetPerimeterSpacing=0;exitX=1;exitY=0.5;exitDx=0;exitDy=0;entryX=0;entryY=0.5;entryDx=0;entryDy=0;" parent="WIyWlLk6GJQsqaUBKTNV-1" source="hy1oDO8q6_hWIqTfd9-p-19" target="lA4buG2lMoGACo_CtUEy-2" edge="1">
                    <mxGeometry relative="1" as="geometry">
                        <mxPoint x="1458.9171974522292" y="-159" as="sourcePoint"/>
                        <mxPoint x="1480" y="21" as="targetPoint"/>
                    </mxGeometry>
                </mxCell>
                <mxCell id="45" value="" style="edgeStyle=none;html=1;strokeColor=default;strokeWidth=1;fontSize=13;startArrow=none;startFill=0;endArrow=open;endFill=0;startSize=12;endSize=8;targetPerimeterSpacing=0;exitX=1;exitY=0.5;exitDx=0;exitDy=0;" parent="WIyWlLk6GJQsqaUBKTNV-1" source="hy1oDO8q6_hWIqTfd9-p-22" target="lA4buG2lMoGACo_CtUEy-9" edge="1">
                    <mxGeometry relative="1" as="geometry">
                        <mxPoint x="1563.722627737226" y="-114" as="sourcePoint"/>
                        <mxPoint x="1700.3284671532847" y="-311" as="targetPoint"/>
                    </mxGeometry>
                </mxCell>
                <mxCell id="46" value="" style="edgeStyle=none;html=1;strokeColor=default;strokeWidth=1;fontSize=13;startArrow=none;startFill=0;endArrow=open;endFill=0;startSize=12;endSize=8;targetPerimeterSpacing=0;" parent="WIyWlLk6GJQsqaUBKTNV-1" target="o9PLWf0R3HBw7IpNgMBT-6" edge="1">
                    <mxGeometry x="0.1429" y="-60" relative="1" as="geometry">
                        <mxPoint x="1430" y="670" as="sourcePoint"/>
                        <mxPoint x="480.25197452229304" y="-462" as="targetPoint"/>
                        <mxPoint as="offset"/>
                    </mxGeometry>
                </mxCell>
                <mxCell id="49" value="RoleAssignment&amp;nbsp;&lt;span style=&quot;background-color: initial;&quot;&gt;:&amp;nbsp;&lt;/span&gt;&lt;span style=&quot;background-color: initial;&quot;&gt;Repository&amp;lt;Configuration, Guid&amp;gt;&lt;/span&gt;" style="swimlane;fontStyle=1;align=center;verticalAlign=top;childLayout=stackLayout;horizontal=1;startSize=40;horizontalStack=0;resizeParent=1;resizeParentMax=0;resizeLast=0;collapsible=1;marginBottom=0;whiteSpace=wrap;html=1;" parent="WIyWlLk6GJQsqaUBKTNV-1" vertex="1">
                    <mxGeometry x="1080" y="520" width="345" height="54" as="geometry"/>
                </mxCell>
                <mxCell id="50" value="&lt;div&gt;&lt;br&gt;&lt;/div&gt;" style="text;strokeColor=none;fillColor=none;align=left;verticalAlign=top;spacingLeft=4;spacingRight=4;overflow=hidden;rotatable=0;points=[[0,0.5],[1,0.5]];portConstraint=eastwest;whiteSpace=wrap;html=1;" parent="49" vertex="1">
                    <mxGeometry y="40" width="345" height="4" as="geometry"/>
                </mxCell>
                <mxCell id="51" value="" style="line;strokeWidth=1;fillColor=none;align=left;verticalAlign=middle;spacingTop=-1;spacingLeft=3;spacingRight=3;rotatable=0;labelPosition=right;points=[];portConstraint=eastwest;strokeColor=inherit;" parent="49" vertex="1">
                    <mxGeometry y="44" width="345" height="10" as="geometry"/>
                </mxCell>
                <mxCell id="52" value="" style="edgeStyle=none;html=1;strokeColor=default;strokeWidth=1;fontSize=13;startArrow=none;startFill=0;endArrow=open;endFill=0;startSize=12;endSize=8;targetPerimeterSpacing=0;" parent="WIyWlLk6GJQsqaUBKTNV-1" source="49" target="o9PLWf0R3HBw7IpNgMBT-9" edge="1">
                    <mxGeometry relative="1" as="geometry">
                        <mxPoint x="-140" y="-308" as="sourcePoint"/>
                        <mxPoint x="-140" y="-378" as="targetPoint"/>
                        <mxPoint as="offset"/>
                    </mxGeometry>
                </mxCell>
                <mxCell id="55" value="&lt;div&gt;&lt;span style=&quot;background-color: initial;&quot;&gt;RoleAssignmentController:&amp;nbsp;&lt;/span&gt;&lt;span style=&quot;background-color: initial;&quot;&gt;CRUDController&lt;/span&gt;&lt;span style=&quot;background-color: initial;&quot;&gt;&amp;nbsp;&lt;/span&gt;&lt;br&gt;&lt;/div&gt;" style="swimlane;fontStyle=1;align=center;verticalAlign=top;childLayout=stackLayout;horizontal=1;startSize=30;horizontalStack=0;resizeParent=1;resizeParentMax=0;resizeLast=0;collapsible=1;marginBottom=0;whiteSpace=wrap;html=1;" parent="WIyWlLk6GJQsqaUBKTNV-1" vertex="1">
                    <mxGeometry x="320" y="540" width="390" height="120" as="geometry"/>
                </mxCell>
                <mxCell id="bqDy925foOsLshB6MztX-66" value="- repository : RoleAssignmentRepository" style="text;html=1;align=left;verticalAlign=middle;whiteSpace=wrap;rounded=0;spacingLeft=10;spacingRight=10;" parent="55" vertex="1">
                    <mxGeometry y="30" width="390" height="20" as="geometry"/>
                </mxCell>
                <mxCell id="56" value="&lt;div&gt;&lt;br&gt;&lt;/div&gt;" style="text;strokeColor=none;fillColor=none;align=left;verticalAlign=top;spacingLeft=4;spacingRight=4;overflow=hidden;rotatable=0;points=[[0,0.5],[1,0.5]];portConstraint=eastwest;whiteSpace=wrap;html=1;" parent="55" vertex="1">
                    <mxGeometry y="50" width="390" height="4" as="geometry"/>
                </mxCell>
                <mxCell id="57" value="" style="line;strokeWidth=1;fillColor=none;align=left;verticalAlign=middle;spacingTop=-1;spacingLeft=3;spacingRight=3;rotatable=0;labelPosition=right;points=[];portConstraint=eastwest;strokeColor=inherit;" parent="55" vertex="1">
                    <mxGeometry y="54" width="390" height="10" as="geometry"/>
                </mxCell>
                <mxCell id="bqDy925foOsLshB6MztX-65" value="&lt;div&gt;+ Get() : RoleAssignment[]&lt;/div&gt;&lt;div&gt;+ Post(roleAssignment: RoleAssignment) : RoleAssignment&lt;/div&gt;&lt;div&gt;+ Delete(id: string)&lt;br&gt;&lt;/div&gt;" style="text;html=1;align=left;verticalAlign=middle;whiteSpace=wrap;rounded=0;spacingLeft=10;spacingRight=10;" parent="55" vertex="1">
                    <mxGeometry y="64" width="390" height="56" as="geometry"/>
                </mxCell>
                <mxCell id="hy1oDO8q6_hWIqTfd9-p-19" value="&lt;div&gt;&lt;span style=&quot;background-color: initial;&quot;&gt;TicketAttachment&lt;/span&gt;&lt;span style=&quot;background-color: initial;&quot;&gt;Repository&lt;/span&gt;&lt;span style=&quot;background-color: initial;&quot;&gt;&amp;nbsp;&lt;/span&gt;&lt;span style=&quot;background-color: initial;&quot;&gt;:&amp;nbsp;&lt;/span&gt;&lt;span style=&quot;background-color: initial;&quot;&gt;Repository&amp;lt;Ticket, Guid&amp;gt;&lt;/span&gt;&lt;/div&gt;" style="swimlane;fontStyle=1;align=center;verticalAlign=top;childLayout=stackLayout;horizontal=1;startSize=40;horizontalStack=0;resizeParent=1;resizeParentMax=0;resizeLast=0;collapsible=1;marginBottom=0;whiteSpace=wrap;html=1;" parent="WIyWlLk6GJQsqaUBKTNV-1" vertex="1">
                    <mxGeometry x="1080" y="-12" width="330" height="54" as="geometry"/>
                </mxCell>
                <mxCell id="hy1oDO8q6_hWIqTfd9-p-20" value="&lt;div&gt;&lt;br&gt;&lt;/div&gt;" style="text;strokeColor=none;fillColor=none;align=left;verticalAlign=top;spacingLeft=4;spacingRight=4;overflow=hidden;rotatable=0;points=[[0,0.5],[1,0.5]];portConstraint=eastwest;whiteSpace=wrap;html=1;" parent="hy1oDO8q6_hWIqTfd9-p-19" vertex="1">
                    <mxGeometry y="40" width="330" height="4" as="geometry"/>
                </mxCell>
                <mxCell id="hy1oDO8q6_hWIqTfd9-p-21" value="" style="line;strokeWidth=1;fillColor=none;align=left;verticalAlign=middle;spacingTop=-1;spacingLeft=3;spacingRight=3;rotatable=0;labelPosition=right;points=[];portConstraint=eastwest;strokeColor=inherit;" parent="hy1oDO8q6_hWIqTfd9-p-19" vertex="1">
                    <mxGeometry y="44" width="330" height="10" as="geometry"/>
                </mxCell>
                <mxCell id="c8B9iwDZ1kwt0dOKmhG3-60" value="&lt;div&gt;&lt;span style=&quot;background-color: initial;&quot;&gt;PriorityRepository :&amp;nbsp;&lt;/span&gt;&lt;span style=&quot;background-color: initial;&quot;&gt;Repository&amp;lt;Priority, Guid&amp;gt;&lt;/span&gt;&lt;br&gt;&lt;/div&gt;" style="swimlane;fontStyle=1;align=center;verticalAlign=top;childLayout=stackLayout;horizontal=1;startSize=40;horizontalStack=0;resizeParent=1;resizeParentMax=0;resizeLast=0;collapsible=1;marginBottom=0;whiteSpace=wrap;html=1;" parent="WIyWlLk6GJQsqaUBKTNV-1" vertex="1">
                    <mxGeometry x="1080" y="267" width="370" height="54" as="geometry"/>
                </mxCell>
                <mxCell id="c8B9iwDZ1kwt0dOKmhG3-61" value="&lt;div&gt;&lt;br&gt;&lt;/div&gt;" style="text;strokeColor=none;fillColor=none;align=left;verticalAlign=top;spacingLeft=4;spacingRight=4;overflow=hidden;rotatable=0;points=[[0,0.5],[1,0.5]];portConstraint=eastwest;whiteSpace=wrap;html=1;" parent="c8B9iwDZ1kwt0dOKmhG3-60" vertex="1">
                    <mxGeometry y="40" width="370" height="4" as="geometry"/>
                </mxCell>
                <mxCell id="c8B9iwDZ1kwt0dOKmhG3-62" value="" style="line;strokeWidth=1;fillColor=none;align=left;verticalAlign=middle;spacingTop=-1;spacingLeft=3;spacingRight=3;rotatable=0;labelPosition=right;points=[];portConstraint=eastwest;strokeColor=inherit;" parent="c8B9iwDZ1kwt0dOKmhG3-60" vertex="1">
                    <mxGeometry y="44" width="370" height="10" as="geometry"/>
                </mxCell>
                <mxCell id="c8B9iwDZ1kwt0dOKmhG3-64" value="&lt;div&gt;&lt;span style=&quot;background-color: initial;&quot;&gt;BuildingRepository :&amp;nbsp;&lt;/span&gt;&lt;span style=&quot;background-color: initial;&quot;&gt;Repository&amp;lt;Building, Guid&amp;gt;&lt;/span&gt;&lt;br&gt;&lt;/div&gt;" style="swimlane;fontStyle=1;align=center;verticalAlign=top;childLayout=stackLayout;horizontal=1;startSize=40;horizontalStack=0;resizeParent=1;resizeParentMax=0;resizeLast=0;collapsible=1;marginBottom=0;whiteSpace=wrap;html=1;" parent="WIyWlLk6GJQsqaUBKTNV-1" vertex="1">
                    <mxGeometry x="1080" y="397" width="370" height="54" as="geometry"/>
                </mxCell>
                <mxCell id="c8B9iwDZ1kwt0dOKmhG3-65" value="&lt;div&gt;&lt;br&gt;&lt;/div&gt;" style="text;strokeColor=none;fillColor=none;align=left;verticalAlign=top;spacingLeft=4;spacingRight=4;overflow=hidden;rotatable=0;points=[[0,0.5],[1,0.5]];portConstraint=eastwest;whiteSpace=wrap;html=1;" parent="c8B9iwDZ1kwt0dOKmhG3-64" vertex="1">
                    <mxGeometry y="40" width="370" height="4" as="geometry"/>
                </mxCell>
                <mxCell id="c8B9iwDZ1kwt0dOKmhG3-66" value="" style="line;strokeWidth=1;fillColor=none;align=left;verticalAlign=middle;spacingTop=-1;spacingLeft=3;spacingRight=3;rotatable=0;labelPosition=right;points=[];portConstraint=eastwest;strokeColor=inherit;" parent="c8B9iwDZ1kwt0dOKmhG3-64" vertex="1">
                    <mxGeometry y="44" width="370" height="10" as="geometry"/>
                </mxCell>
                <mxCell id="c8B9iwDZ1kwt0dOKmhG3-67" value="" style="edgeStyle=none;html=1;strokeColor=default;strokeWidth=1;fontSize=13;startArrow=none;startFill=0;endArrow=open;endFill=0;startSize=12;endSize=8;targetPerimeterSpacing=0;exitX=1;exitY=0.5;exitDx=0;exitDy=0;entryX=0;entryY=0.5;entryDx=0;entryDy=0;" parent="WIyWlLk6GJQsqaUBKTNV-1" source="c8B9iwDZ1kwt0dOKmhG3-60" target="o9PLWf0R3HBw7IpNgMBT-4" edge="1">
                    <mxGeometry relative="1" as="geometry">
                        <mxPoint x="1460" y="156" as="sourcePoint"/>
                        <mxPoint x="1520" y="156" as="targetPoint"/>
                    </mxGeometry>
                </mxCell>
                <mxCell id="c8B9iwDZ1kwt0dOKmhG3-68" value="" style="edgeStyle=none;html=1;strokeColor=default;strokeWidth=1;fontSize=13;startArrow=none;startFill=0;endArrow=open;endFill=0;startSize=12;endSize=8;targetPerimeterSpacing=0;exitX=1;exitY=0.5;exitDx=0;exitDy=0;entryX=0;entryY=0.5;entryDx=0;entryDy=0;" parent="WIyWlLk6GJQsqaUBKTNV-1" source="c8B9iwDZ1kwt0dOKmhG3-64" target="o9PLWf0R3HBw7IpNgMBT-17" edge="1">
                    <mxGeometry relative="1" as="geometry">
                        <mxPoint x="1460" y="304" as="sourcePoint"/>
                        <mxPoint x="1520" y="304" as="targetPoint"/>
                    </mxGeometry>
                </mxCell>
                <mxCell id="c8B9iwDZ1kwt0dOKmhG3-82" value="&lt;div&gt;&lt;span style=&quot;background-color: initial;&quot;&gt;BuidlingController:&amp;nbsp;&lt;/span&gt;&lt;span style=&quot;background-color: initial;&quot;&gt;CRUDController&lt;/span&gt;&lt;span style=&quot;background-color: initial;&quot;&gt;&amp;nbsp;&lt;/span&gt;&lt;br&gt;&lt;/div&gt;" style="swimlane;fontStyle=1;align=center;verticalAlign=top;childLayout=stackLayout;horizontal=1;startSize=30;horizontalStack=0;resizeParent=1;resizeParentMax=0;resizeLast=0;collapsible=1;marginBottom=0;whiteSpace=wrap;html=1;" parent="WIyWlLk6GJQsqaUBKTNV-1" vertex="1">
                    <mxGeometry x="320" y="380" width="390" height="130" as="geometry"/>
                </mxCell>
                <mxCell id="bqDy925foOsLshB6MztX-62" value="- repository : BuildingRepository" style="text;html=1;align=left;verticalAlign=middle;whiteSpace=wrap;rounded=0;spacingLeft=10;spacingRight=10;" parent="c8B9iwDZ1kwt0dOKmhG3-82" vertex="1">
                    <mxGeometry y="30" width="390" height="20" as="geometry"/>
                </mxCell>
                <mxCell id="c8B9iwDZ1kwt0dOKmhG3-83" value="&lt;div&gt;&lt;br&gt;&lt;/div&gt;" style="text;strokeColor=none;fillColor=none;align=left;verticalAlign=top;spacingLeft=4;spacingRight=4;overflow=hidden;rotatable=0;points=[[0,0.5],[1,0.5]];portConstraint=eastwest;whiteSpace=wrap;html=1;" parent="c8B9iwDZ1kwt0dOKmhG3-82" vertex="1">
                    <mxGeometry y="50" width="390" height="4" as="geometry"/>
                </mxCell>
                <mxCell id="c8B9iwDZ1kwt0dOKmhG3-84" value="" style="line;strokeWidth=1;fillColor=none;align=left;verticalAlign=middle;spacingTop=-1;spacingLeft=3;spacingRight=3;rotatable=0;labelPosition=right;points=[];portConstraint=eastwest;strokeColor=inherit;" parent="c8B9iwDZ1kwt0dOKmhG3-82" vertex="1">
                    <mxGeometry y="54" width="390" height="10" as="geometry"/>
                </mxCell>
                <mxCell id="bqDy925foOsLshB6MztX-57" value="&lt;div&gt;+ Get() : Building[]&lt;/div&gt;&lt;div&gt;+ Post(building: Building) : Building&lt;/div&gt;&lt;div&gt;+ Put(building: Building) : Building&lt;/div&gt;&lt;div&gt;+ Delete(id: String)&lt;br&gt;&lt;/div&gt;" style="text;html=1;align=left;verticalAlign=middle;whiteSpace=wrap;rounded=0;spacingLeft=10;spacingRight=10;" parent="c8B9iwDZ1kwt0dOKmhG3-82" vertex="1">
                    <mxGeometry y="64" width="390" height="66" as="geometry"/>
                </mxCell>
                <mxCell id="c8B9iwDZ1kwt0dOKmhG3-86" value="&lt;div&gt;&lt;span style=&quot;background-color: initial;&quot;&gt;PriorityController:&amp;nbsp;&lt;/span&gt;&lt;span style=&quot;background-color: initial;&quot;&gt;CRUDController&lt;/span&gt;&lt;span style=&quot;background-color: initial;&quot;&gt;&amp;nbsp;&lt;/span&gt;&lt;br&gt;&lt;/div&gt;" style="swimlane;fontStyle=1;align=center;verticalAlign=top;childLayout=stackLayout;horizontal=1;startSize=30;horizontalStack=0;resizeParent=1;resizeParentMax=0;resizeLast=0;collapsible=1;marginBottom=0;whiteSpace=wrap;html=1;" parent="WIyWlLk6GJQsqaUBKTNV-1" vertex="1">
                    <mxGeometry x="320" y="230" width="390" height="130" as="geometry"/>
                </mxCell>
                <mxCell id="c8B9iwDZ1kwt0dOKmhG3-87" value="&lt;div&gt;&lt;br&gt;&lt;/div&gt;" style="text;strokeColor=none;fillColor=none;align=left;verticalAlign=top;spacingLeft=4;spacingRight=4;overflow=hidden;rotatable=0;points=[[0,0.5],[1,0.5]];portConstraint=eastwest;whiteSpace=wrap;html=1;" parent="c8B9iwDZ1kwt0dOKmhG3-86" vertex="1">
                    <mxGeometry y="30" width="390" height="4" as="geometry"/>
                </mxCell>
                <mxCell id="bqDy925foOsLshB6MztX-63" value="- repository : PriorityRepository" style="text;html=1;align=left;verticalAlign=middle;whiteSpace=wrap;rounded=0;spacingLeft=10;spacingRight=10;" parent="c8B9iwDZ1kwt0dOKmhG3-86" vertex="1">
                    <mxGeometry y="34" width="390" height="20" as="geometry"/>
                </mxCell>
                <mxCell id="c8B9iwDZ1kwt0dOKmhG3-88" value="" style="line;strokeWidth=1;fillColor=none;align=left;verticalAlign=middle;spacingTop=-1;spacingLeft=3;spacingRight=3;rotatable=0;labelPosition=right;points=[];portConstraint=eastwest;strokeColor=inherit;" parent="c8B9iwDZ1kwt0dOKmhG3-86" vertex="1">
                    <mxGeometry y="54" width="390" height="10" as="geometry"/>
                </mxCell>
                <mxCell id="bqDy925foOsLshB6MztX-64" value="&lt;div&gt;+ Get() : Priority[]&lt;/div&gt;&lt;div&gt;+ Post(priority: Priority) : Priority&lt;br&gt;&lt;/div&gt;&lt;div&gt;+ Put(priority: Priority) : Priority&lt;br&gt;&lt;/div&gt;&lt;div&gt;+ Delete(id: string)&lt;br&gt;&lt;/div&gt;" style="text;html=1;align=left;verticalAlign=middle;whiteSpace=wrap;rounded=0;spacingLeft=10;spacingRight=10;" parent="c8B9iwDZ1kwt0dOKmhG3-86" vertex="1">
                    <mxGeometry y="64" width="390" height="66" as="geometry"/>
                </mxCell>
                <mxCell id="bqDy925foOsLshB6MztX-67" value="&lt;div&gt;&lt;span style=&quot;background-color: initial;&quot;&gt;TicketCommentController&lt;/span&gt;&lt;span style=&quot;background-color: initial;&quot;&gt; &lt;/span&gt;&lt;br&gt;&lt;/div&gt;" style="swimlane;fontStyle=1;align=center;verticalAlign=top;childLayout=stackLayout;horizontal=1;startSize=30;horizontalStack=0;resizeParent=1;resizeParentMax=0;resizeLast=0;collapsible=1;marginBottom=0;whiteSpace=wrap;html=1;" parent="WIyWlLk6GJQsqaUBKTNV-1" vertex="1">
                    <mxGeometry x="320" y="101" width="390" height="90" as="geometry"/>
                </mxCell>
                <mxCell id="bqDy925foOsLshB6MztX-68" value="- repository : TicketCommentRepository" style="text;html=1;align=left;verticalAlign=middle;whiteSpace=wrap;rounded=0;spacingLeft=10;spacingRight=10;" parent="bqDy925foOsLshB6MztX-67" vertex="1">
                    <mxGeometry y="30" width="390" height="20" as="geometry"/>
                </mxCell>
                <mxCell id="bqDy925foOsLshB6MztX-69" value="&lt;div&gt;&lt;br&gt;&lt;/div&gt;" style="text;strokeColor=none;fillColor=none;align=left;verticalAlign=top;spacingLeft=4;spacingRight=4;overflow=hidden;rotatable=0;points=[[0,0.5],[1,0.5]];portConstraint=eastwest;whiteSpace=wrap;html=1;" parent="bqDy925foOsLshB6MztX-67" vertex="1">
                    <mxGeometry y="50" width="390" height="4" as="geometry"/>
                </mxCell>
                <mxCell id="bqDy925foOsLshB6MztX-70" value="" style="line;strokeWidth=1;fillColor=none;align=left;verticalAlign=middle;spacingTop=-1;spacingLeft=3;spacingRight=3;rotatable=0;labelPosition=right;points=[];portConstraint=eastwest;strokeColor=inherit;" parent="bqDy925foOsLshB6MztX-67" vertex="1">
                    <mxGeometry y="54" width="390" height="10" as="geometry"/>
                </mxCell>
                <mxCell id="bqDy925foOsLshB6MztX-71" value="+ Delete(id: String)" style="text;html=1;align=left;verticalAlign=middle;whiteSpace=wrap;rounded=0;spacingLeft=10;spacingRight=10;" parent="bqDy925foOsLshB6MztX-67" vertex="1">
                    <mxGeometry y="64" width="390" height="26" as="geometry"/>
                </mxCell>
                <mxCell id="bqDy925foOsLshB6MztX-72" value="&lt;div&gt;&lt;span style=&quot;background-color: initial;&quot;&gt;TicketAttachmentController&lt;/span&gt;&lt;span style=&quot;background-color: initial;&quot;&gt; &lt;/span&gt;&lt;br&gt;&lt;/div&gt;" style="swimlane;fontStyle=1;align=center;verticalAlign=top;childLayout=stackLayout;horizontal=1;startSize=30;horizontalStack=0;resizeParent=1;resizeParentMax=0;resizeLast=0;collapsible=1;marginBottom=0;whiteSpace=wrap;html=1;" parent="WIyWlLk6GJQsqaUBKTNV-1" vertex="1">
                    <mxGeometry x="320" y="-30" width="390" height="90" as="geometry"/>
                </mxCell>
                <mxCell id="bqDy925foOsLshB6MztX-73" value="- repository :&amp;nbsp;&lt;span style=&quot;background-color: initial;&quot;&gt;TicketAttachment&lt;/span&gt;Repository" style="text;html=1;align=left;verticalAlign=middle;whiteSpace=wrap;rounded=0;spacingLeft=10;spacingRight=10;" parent="bqDy925foOsLshB6MztX-72" vertex="1">
                    <mxGeometry y="30" width="390" height="20" as="geometry"/>
                </mxCell>
                <mxCell id="bqDy925foOsLshB6MztX-74" value="&lt;div&gt;&lt;br&gt;&lt;/div&gt;" style="text;strokeColor=none;fillColor=none;align=left;verticalAlign=top;spacingLeft=4;spacingRight=4;overflow=hidden;rotatable=0;points=[[0,0.5],[1,0.5]];portConstraint=eastwest;whiteSpace=wrap;html=1;" parent="bqDy925foOsLshB6MztX-72" vertex="1">
                    <mxGeometry y="50" width="390" height="4" as="geometry"/>
                </mxCell>
                <mxCell id="bqDy925foOsLshB6MztX-75" value="" style="line;strokeWidth=1;fillColor=none;align=left;verticalAlign=middle;spacingTop=-1;spacingLeft=3;spacingRight=3;rotatable=0;labelPosition=right;points=[];portConstraint=eastwest;strokeColor=inherit;" parent="bqDy925foOsLshB6MztX-72" vertex="1">
                    <mxGeometry y="54" width="390" height="10" as="geometry"/>
                </mxCell>
                <mxCell id="bqDy925foOsLshB6MztX-76" value="+ Delete(id: String)" style="text;html=1;align=left;verticalAlign=middle;whiteSpace=wrap;rounded=0;spacingLeft=10;spacingRight=10;" parent="bqDy925foOsLshB6MztX-72" vertex="1">
                    <mxGeometry y="64" width="390" height="26" as="geometry"/>
                </mxCell>
                <mxCell id="bqDy925foOsLshB6MztX-77" style="edgeStyle=orthogonalEdgeStyle;rounded=0;orthogonalLoop=1;jettySize=auto;html=1;entryX=0;entryY=0.5;entryDx=0;entryDy=0;endArrow=open;endFill=0;endSize=12;exitX=1;exitY=0.25;exitDx=0;exitDy=0;" parent="WIyWlLk6GJQsqaUBKTNV-1" source="bqDy925foOsLshB6MztX-60" target="o9PLWf0R3HBw7IpNgMBT-19" edge="1">
                    <mxGeometry relative="1" as="geometry"/>
                </mxCell>
                <mxCell id="bqDy925foOsLshB6MztX-80" style="edgeStyle=orthogonalEdgeStyle;rounded=0;orthogonalLoop=1;jettySize=auto;html=1;entryX=0;entryY=0.5;entryDx=0;entryDy=0;endArrow=open;endFill=0;endSize=12;exitX=1;exitY=0.5;exitDx=0;exitDy=0;" parent="WIyWlLk6GJQsqaUBKTNV-1" source="bqDy925foOsLshB6MztX-60" target="hy1oDO8q6_hWIqTfd9-p-22" edge="1">
                    <mxGeometry relative="1" as="geometry">
                        <mxPoint x="810" y="-293" as="sourcePoint"/>
                        <mxPoint x="1090" y="-340" as="targetPoint"/>
                    </mxGeometry>
                </mxCell>
                <mxCell id="bqDy925foOsLshB6MztX-81" style="edgeStyle=orthogonalEdgeStyle;rounded=0;orthogonalLoop=1;jettySize=auto;html=1;entryX=0;entryY=0.5;entryDx=0;entryDy=0;endArrow=open;endFill=0;endSize=12;exitX=1;exitY=0.75;exitDx=0;exitDy=0;" parent="WIyWlLk6GJQsqaUBKTNV-1" source="bqDy925foOsLshB6MztX-60" target="hy1oDO8q6_hWIqTfd9-p-19" edge="1">
                    <mxGeometry relative="1" as="geometry">
                        <mxPoint x="810" y="-425" as="sourcePoint"/>
                        <mxPoint x="1090" y="156" as="targetPoint"/>
                    </mxGeometry>
                </mxCell>
                <mxCell id="bqDy925foOsLshB6MztX-82" style="edgeStyle=orthogonalEdgeStyle;rounded=0;orthogonalLoop=1;jettySize=auto;html=1;endArrow=open;endFill=0;endSize=12;exitX=1;exitY=0.25;exitDx=0;exitDy=0;entryX=0;entryY=0.5;entryDx=0;entryDy=0;jumpStyle=arc;" parent="WIyWlLk6GJQsqaUBKTNV-1" source="bqDy925foOsLshB6MztX-61" target="hy1oDO8q6_hWIqTfd9-p-29" edge="1">
                    <mxGeometry relative="1" as="geometry">
                        <mxPoint x="810" y="-425" as="sourcePoint"/>
                        <mxPoint x="1050" y="-130" as="targetPoint"/>
                        <Array as="points">
                            <mxPoint x="710" y="-129"/>
                        </Array>
                    </mxGeometry>
                </mxCell>
                <mxCell id="bqDy925foOsLshB6MztX-84" style="edgeStyle=orthogonalEdgeStyle;rounded=0;orthogonalLoop=1;jettySize=auto;html=1;endArrow=open;endFill=0;endSize=12;exitX=1;exitY=0.5;exitDx=0;exitDy=0;entryX=0;entryY=0.5;entryDx=0;entryDy=0;jumpStyle=arc;" parent="WIyWlLk6GJQsqaUBKTNV-1" source="bqDy925foOsLshB6MztX-73" target="hy1oDO8q6_hWIqTfd9-p-19" edge="1">
                    <mxGeometry relative="1" as="geometry">
                        <mxPoint x="810" y="-412" as="sourcePoint"/>
                        <mxPoint x="1010" y="-20" as="targetPoint"/>
                        <Array as="points">
                            <mxPoint x="710" y="15"/>
                        </Array>
                    </mxGeometry>
                </mxCell>
                <mxCell id="bqDy925foOsLshB6MztX-85" style="edgeStyle=orthogonalEdgeStyle;rounded=0;orthogonalLoop=1;jettySize=auto;html=1;entryX=0;entryY=0.5;entryDx=0;entryDy=0;endArrow=open;endFill=0;endSize=12;exitX=1;exitY=0.5;exitDx=0;exitDy=0;" parent="WIyWlLk6GJQsqaUBKTNV-1" source="bqDy925foOsLshB6MztX-68" target="hy1oDO8q6_hWIqTfd9-p-22" edge="1">
                    <mxGeometry relative="1" as="geometry">
                        <mxPoint x="810" y="-442" as="sourcePoint"/>
                        <mxPoint x="1090" y="25" as="targetPoint"/>
                        <Array as="points">
                            <mxPoint x="710" y="146"/>
                        </Array>
                    </mxGeometry>
                </mxCell>
                <mxCell id="bqDy925foOsLshB6MztX-86" style="edgeStyle=orthogonalEdgeStyle;rounded=0;orthogonalLoop=1;jettySize=auto;html=1;entryX=0;entryY=0.25;entryDx=0;entryDy=0;endArrow=open;endFill=0;endSize=12;exitX=1;exitY=0.5;exitDx=0;exitDy=0;" parent="WIyWlLk6GJQsqaUBKTNV-1" source="bqDy925foOsLshB6MztX-63" target="c8B9iwDZ1kwt0dOKmhG3-60" edge="1">
                    <mxGeometry relative="1" as="geometry">
                        <mxPoint x="810" y="-455" as="sourcePoint"/>
                        <mxPoint x="1090" y="156" as="targetPoint"/>
                        <Array as="points">
                            <mxPoint x="710" y="280"/>
                            <mxPoint x="890" y="280"/>
                        </Array>
                    </mxGeometry>
                </mxCell>
                <mxCell id="bqDy925foOsLshB6MztX-87" style="edgeStyle=orthogonalEdgeStyle;rounded=0;orthogonalLoop=1;jettySize=auto;html=1;entryX=0;entryY=0.5;entryDx=0;entryDy=0;endArrow=open;endFill=0;endSize=12;exitX=1;exitY=0.5;exitDx=0;exitDy=0;" parent="WIyWlLk6GJQsqaUBKTNV-1" source="bqDy925foOsLshB6MztX-62" target="c8B9iwDZ1kwt0dOKmhG3-64" edge="1">
                    <mxGeometry relative="1" as="geometry">
                        <mxPoint x="810" y="-455" as="sourcePoint"/>
                        <mxPoint x="1090" y="156" as="targetPoint"/>
                        <Array as="points">
                            <mxPoint x="710" y="424"/>
                        </Array>
                    </mxGeometry>
                </mxCell>
                <mxCell id="bqDy925foOsLshB6MztX-88" style="edgeStyle=orthogonalEdgeStyle;rounded=0;orthogonalLoop=1;jettySize=auto;html=1;endArrow=open;endFill=0;endSize=12;exitX=1;exitY=0.5;exitDx=0;exitDy=0;entryX=0;entryY=0.5;entryDx=0;entryDy=0;" parent="WIyWlLk6GJQsqaUBKTNV-1" source="bqDy925foOsLshB6MztX-66" target="49" edge="1">
                    <mxGeometry relative="1" as="geometry">
                        <mxPoint x="760.05" y="560" as="sourcePoint"/>
                        <mxPoint x="950" y="510" as="targetPoint"/>
                        <Array as="points">
                            <mxPoint x="940" y="580"/>
                            <mxPoint x="940" y="547"/>
                        </Array>
                    </mxGeometry>
                </mxCell>
            </root>
        </mxGraphModel>
    </diagram>
</mxfile>